<svg width="214" height="173" viewBox="0 0 214 173" fill="none" xmlns="http://www.w3.org/2000/svg">
<path d="M0.761759 52.7926C-0.463117 47.8558 2.54605 42.8607 7.48293 41.6358L174.195 0.273188C179.132 -0.951688 184.127 2.05748 185.352 6.99436L213.297 119.626C214.522 124.563 211.513 129.558 206.576 130.783L39.8633 172.145C34.9264 173.37 29.9313 170.361 28.7065 165.424L0.761759 52.7926Z" fill="white"/>
<path d="M115.365 97.976C112.785 101.107 108.458 102.181 104.713 100.619L5.66639 59.3152C-2.52521 55.8993 -1.62077 44.0129 6.99338 41.8757L174.293 0.367375C182.907 -1.76986 189.263 8.31517 183.618 15.1641L115.365 97.976Z" fill="#D1D1D1"/>
<path d="M132.307 97.2554C135.216 108.98 128.069 120.844 116.344 123.753C104.619 126.662 92.7554 119.515 89.8464 107.79C86.9373 96.065 94.0841 84.2017 105.809 81.2926C117.534 78.3835 129.398 85.5303 132.307 97.2554Z" fill="#9D2A2A"/>
<path d="M130.519 97.6991C133.183 108.437 126.638 119.301 115.9 121.965C105.163 124.629 94.2984 118.084 91.6342 107.347C88.9701 96.609 95.5151 85.7447 106.253 83.0806C116.99 80.4165 127.855 86.9614 130.519 97.6991Z" fill="#A65151"/>
<path d="M129.123 97.8082C131.572 107.682 125.554 117.672 115.68 120.122C105.806 122.572 95.8163 116.553 93.3665 106.68C90.9167 96.8058 96.9351 86.8156 106.809 84.3659C116.683 81.9161 126.673 87.9345 129.123 97.8082Z" fill="#9D2A2A"/>
<path d="M105.29 108.153C104.707 108.298 104.147 108.297 103.61 108.152C103.079 108.006 102.614 107.714 102.213 107.278C101.811 106.835 101.522 106.259 101.346 105.551C101.099 104.555 101.061 103.632 101.233 102.782C101.412 101.93 101.761 101.221 102.281 100.653C102.808 100.084 103.452 99.7052 104.212 99.5166C104.796 99.3718 105.353 99.3728 105.883 99.5195C106.42 99.6646 106.89 99.9587 107.292 100.402C107.693 100.838 107.981 101.41 108.156 102.118C108.403 103.115 108.438 104.039 108.259 104.89C108.088 105.74 107.738 106.45 107.211 107.019C106.691 107.586 106.051 107.964 105.29 108.153ZM105.101 106.968C105.612 106.841 106.022 106.573 106.331 106.162C106.646 105.75 106.839 105.239 106.911 104.63C106.981 104.014 106.928 103.352 106.752 102.644C106.559 101.864 106.249 101.315 105.822 100.996C105.393 100.671 104.92 100.573 104.402 100.701C103.897 100.826 103.49 101.094 103.182 101.505C102.871 101.909 102.678 102.42 102.601 103.037C102.523 103.648 102.573 104.311 102.75 105.025C102.944 105.805 103.255 106.358 103.684 106.683C104.11 107.002 104.583 107.097 105.101 106.968Z" fill="white"/>
<path d="M114.748 103.426C114.833 103.405 114.909 103.428 114.974 103.496C115.046 103.561 115.099 103.663 115.133 103.801C115.198 104.063 115.186 104.281 115.098 104.457C114.902 104.874 114.668 105.235 114.395 105.539C114.129 105.842 113.79 106.044 113.377 106.147C113.03 106.233 112.717 106.178 112.439 105.983C112.125 106.318 111.766 106.539 111.361 106.647C111.59 107.933 111.658 109.036 111.567 109.957C111.477 110.884 111.14 111.42 110.556 111.564C110.202 111.652 109.908 111.589 109.675 111.376C109.441 111.163 109.268 110.83 109.155 110.378C108.996 109.735 108.957 108.948 109.039 108.016C109.123 107.091 109.345 106.037 109.706 104.855C109.468 103.898 109.297 103.234 109.191 102.864C109.137 102.675 109.175 102.506 109.305 102.355C109.435 102.205 109.617 102.1 109.853 102.042C109.991 102.008 110.097 102.013 110.17 102.057C110.249 102.093 110.312 102.192 110.359 102.355C110.4 102.519 110.433 102.639 110.459 102.716C110.604 102.402 110.764 102.164 110.939 102.002C111.113 101.833 111.315 101.721 111.545 101.664C111.912 101.573 112.247 101.646 112.549 101.884C112.858 102.121 113.072 102.478 113.191 102.957C113.277 103.304 113.305 103.656 113.275 104.011C113.245 104.366 113.165 104.703 113.035 105.021C113.182 105.026 113.302 105.017 113.394 104.994C113.61 104.94 113.797 104.811 113.955 104.604C114.112 104.398 114.3 104.074 114.517 103.63C114.573 103.519 114.65 103.451 114.748 103.426ZM111.176 105.69C111.399 105.579 111.584 105.398 111.73 105.146C111.881 104.886 111.978 104.59 112.022 104.259C112.063 103.922 112.042 103.586 111.959 103.252C111.911 103.055 111.835 102.918 111.732 102.839C111.627 102.753 111.509 102.727 111.378 102.759C111.142 102.818 110.919 103.138 110.708 103.719C110.773 104.009 110.875 104.433 111.013 104.99C111.088 105.291 111.142 105.525 111.176 105.69ZM110.396 110.581C110.573 110.537 110.624 110.114 110.551 109.311C110.478 108.515 110.316 107.539 110.064 106.384C109.945 107.109 109.878 107.791 109.862 108.428C109.846 109.065 109.888 109.587 109.989 109.993C110.041 110.203 110.107 110.357 110.187 110.456C110.261 110.556 110.33 110.598 110.396 110.581Z" fill="white"/>
<path d="M118.617 102.467C118.702 102.445 118.777 102.469 118.843 102.536C118.915 102.601 118.968 102.703 119.002 102.841C119.067 103.103 119.055 103.322 118.966 103.497C118.797 103.852 118.52 104.209 118.136 104.569C117.759 104.927 117.318 105.169 116.813 105.294C116.125 105.465 115.544 105.41 115.071 105.131C114.598 104.852 114.281 104.388 114.12 103.739C114.008 103.286 113.999 102.843 114.093 102.409C114.186 101.969 114.371 101.592 114.648 101.28C114.932 100.966 115.287 100.756 115.713 100.65C116.093 100.556 116.427 100.595 116.713 100.768C116.998 100.934 117.188 101.21 117.284 101.597C117.396 102.049 117.329 102.48 117.083 102.889C116.841 103.29 116.357 103.681 115.631 104.063C115.87 104.324 116.218 104.398 116.677 104.284C116.972 104.211 117.281 104.026 117.605 103.73C117.933 103.426 118.193 103.073 118.385 102.67C118.441 102.559 118.518 102.491 118.617 102.467ZM115.785 101.656C115.543 101.716 115.371 101.908 115.27 102.232C115.177 102.555 115.179 102.916 115.278 103.316L115.283 103.335C115.647 103.148 115.918 102.934 116.095 102.696C116.273 102.457 116.331 102.216 116.271 101.973C116.24 101.849 116.18 101.76 116.09 101.705C116.005 101.643 115.903 101.626 115.785 101.656Z" fill="white"/>
<path d="M119.346 104.666C119.097 104.727 118.887 104.64 118.717 104.404C118.554 104.166 118.401 103.759 118.257 103.182C118.046 102.33 117.966 101.49 118.019 100.663C118.031 100.458 118.091 100.297 118.201 100.179C118.316 100.053 118.495 99.9603 118.738 99.9001C118.869 99.8676 118.964 99.8612 119.025 99.881C119.086 99.9007 119.127 99.9565 119.15 100.048C119.176 100.153 119.185 100.401 119.178 100.793C119.178 101.071 119.182 101.314 119.192 101.52C119.201 101.727 119.229 101.977 119.274 102.272C119.35 101.655 119.479 101.136 119.66 100.715C119.841 100.294 120.04 99.977 120.259 99.7628C120.484 99.547 120.704 99.4122 120.92 99.3585C121.13 99.3065 121.301 99.3232 121.434 99.4086C121.571 99.4858 121.666 99.6293 121.718 99.8391C121.76 100.01 121.804 100.34 121.849 100.83C121.883 101.246 121.925 101.639 121.975 102.009C122.023 102.373 122.102 102.774 122.211 103.214C122.273 103.463 122.265 103.656 122.188 103.793C122.115 103.923 121.965 104.016 121.735 104.073C121.519 104.126 121.348 104.11 121.222 104.023C121.096 103.936 121.005 103.781 120.95 103.558C120.885 103.296 120.823 102.852 120.765 102.226C120.714 101.682 120.67 101.338 120.635 101.194C120.609 101.089 120.559 101.045 120.487 101.063C120.402 101.084 120.309 101.226 120.207 101.488C120.109 101.741 120.024 102.069 119.949 102.47C119.881 102.87 119.848 103.281 119.849 103.706C119.853 104.032 119.82 104.263 119.749 104.398C119.683 104.526 119.549 104.615 119.346 104.666Z" fill="white"/>
</svg>
