<svg width="31" height="34" viewBox="0 0 31 34" fill="none" xmlns="http://www.w3.org/2000/svg">
<path d="M0 31.1675V12.3348C0 11.7802 0.126611 11.2551 0.379833 10.7597C0.633055 10.2642 0.981972 9.85617 1.42658 9.5355L13.3185 0.699834C13.9412 0.233279 14.6523 0 15.4517 0C16.2511 0 16.9666 0.233279 17.5982 0.699834L29.4901 9.53333C29.9362 9.854 30.2851 10.2628 30.5368 10.7597C30.7901 11.2551 30.9167 11.7802 30.9167 12.3348V31.1675C30.9167 31.7482 30.6966 32.2544 30.2564 32.6863C29.8162 33.1182 29.3002 33.3342 28.7083 33.3342H21.2353C20.7289 33.3342 20.3049 33.1666 19.9633 32.8315C19.6218 32.4949 19.451 32.0789 19.451 31.5835V21.2507C19.451 20.7552 19.2802 20.3399 18.9387 20.0048C18.5956 19.6683 18.1716 19.5 17.6667 19.5H13.25C12.745 19.5 12.3218 19.6683 11.9802 20.0048C11.6372 20.3399 11.4657 20.7552 11.4657 21.2507V31.5857C11.4657 32.0811 11.2949 32.4964 10.9533 32.8315C10.6118 33.1666 10.1885 33.3342 9.68354 33.3342H2.20833C1.6165 33.3342 1.10049 33.1182 0.660291 32.6863C0.220097 32.2544 0 31.7482 0 31.1675Z" fill="white"/>
</svg>
