<svg width="36" height="36" viewBox="0 0 36 36" fill="none" xmlns="http://www.w3.org/2000/svg">
<g clip-path="url(#clip0_270_400)">
<path d="M18 36C8.05838 36 0 27.9416 0 18C0 8.05838 8.05838 0 18 0C27.9416 0 36 8.05838 36 18C36 22.7739 34.1036 27.3523 30.7279 30.7279C27.3523 34.1036 22.7739 36 18 36ZM18 2.25C9.3015 2.25 2.25 9.3015 2.25 18C2.25 26.6985 9.3015 33.75 18 33.75C26.6985 33.75 33.75 26.6985 33.75 18C33.75 13.8228 32.0906 9.81677 29.1369 6.86307C26.1832 3.90937 22.1772 2.25 18 2.25Z" fill="white"/>
<path d="M25.875 16.875H19.125V10.125H16.875V16.875H10.125V19.125H16.875V25.875H19.125V19.125H25.875V16.875Z" fill="white"/>
</g>
<defs>
<clipPath id="clip0_270_400">
<rect width="36" height="36" fill="white"/>
</clipPath>
</defs>
</svg>
