<svg width="53" height="52" viewBox="0 0 53 52" fill="none" xmlns="http://www.w3.org/2000/svg">
<path fill-rule="evenodd" clip-rule="evenodd" d="M17.6667 15.1667C17.6667 12.8681 18.5973 10.6637 20.2539 9.03841C21.9105 7.41309 24.1573 6.5 26.5 6.5C28.8427 6.5 31.0895 7.41309 32.7461 9.03841C34.4027 10.6637 35.3333 12.8681 35.3333 15.1667C35.3333 17.4652 34.4027 19.6696 32.7461 21.2949C31.0895 22.9202 28.8427 23.8333 26.5 23.8333C24.1573 23.8333 21.9105 22.9202 20.2539 21.2949C18.5973 19.6696 17.6667 17.4652 17.6667 15.1667ZM17.6667 28.1667C14.7382 28.1667 11.9297 29.308 9.85903 31.3397C7.78832 33.3713 6.625 36.1268 6.625 39C6.625 40.7239 7.32299 42.3772 8.56542 43.5962C9.80785 44.8152 11.4929 45.5 13.25 45.5H39.75C41.5071 45.5 43.1922 44.8152 44.4346 43.5962C45.677 42.3772 46.375 40.7239 46.375 39C46.375 36.1268 45.2117 33.3713 43.141 31.3397C41.0703 29.308 38.2618 28.1667 35.3333 28.1667H17.6667Z" fill="#5E3023"/>
</svg>
